<svg width="32" height="32" viewBox="0 0 32 32" fill="none" xmlns="http://www.w3.org/2000/svg">
<path d="M32 16C32 24.8366 24.8366 32 16 32C7.16344 32 0 24.8366 0 16C0 7.16344 7.16344 0 16 0C24.8366 0 32 7.16344 32 16Z" fill="#FFB300"/>
<path d="M9.47159 10.3636V22H7.01136V10.3636H9.47159Z" fill="white"/>
<path d="M14.1151 22L10.7855 10.3636H13.473L15.3991 18.4489H15.4957L17.6207 10.3636H19.9219L22.0412 18.4659H22.1435L24.0696 10.3636H26.7571L23.4276 22H21.0298L18.8139 14.392H18.723L16.5128 22H14.1151Z" fill="white"/>
</svg>
