<svg width="500" height="500" viewBox="0 0 500 500" fill="none" xmlns="http://www.w3.org/2000/svg">
<path d="M0 0H500V500H0V0Z" fill="#FFB300"/>
<path d="M198.015 308.284L204.305 322.721L203.377 322.824L209.254 308.284H213.945L204.15 331L197.293 316.304L191.056 331L181.157 308.284H185.849L192.499 323.393L190.849 323.083L195.592 312.01L193.891 308.284H198.015Z" fill="white"/>
<path d="M216.732 318.788C216.732 316.649 217.231 314.718 218.227 312.993C219.259 311.268 220.668 309.905 222.455 308.905C224.242 307.904 226.27 307.404 228.538 307.404C230.875 307.404 232.92 307.904 234.673 308.905C236.426 309.905 237.783 311.268 238.746 312.993C239.708 314.718 240.189 316.649 240.189 318.788C240.189 320.927 239.708 322.876 238.746 324.635C237.783 326.36 236.409 327.723 234.621 328.723C232.869 329.724 230.824 330.224 228.487 330.224C226.218 330.224 224.19 329.758 222.403 328.827C220.65 327.861 219.259 326.533 218.227 324.842C217.231 323.118 216.732 321.099 216.732 318.788ZM221.527 318.84C221.527 320.22 221.836 321.479 222.455 322.617C223.073 323.721 223.898 324.601 224.929 325.256C225.995 325.912 227.163 326.239 228.435 326.239C229.775 326.239 230.961 325.912 231.992 325.256C233.058 324.601 233.883 323.721 234.467 322.617C235.051 321.479 235.343 320.22 235.343 318.84C235.343 317.46 235.051 316.218 234.467 315.114C233.883 313.976 233.058 313.079 231.992 312.424C230.961 311.734 229.775 311.389 228.435 311.389C227.129 311.389 225.943 311.734 224.878 312.424C223.847 313.113 223.022 314.028 222.403 315.166C221.819 316.27 221.527 317.495 221.527 318.84Z" fill="white"/>
<path d="M250.96 308.284L251.424 314.493L251.166 313.665C251.716 312.355 252.507 311.251 253.538 310.354C254.603 309.422 255.703 308.715 256.837 308.232C258.006 307.715 259.019 307.456 259.879 307.456L259.621 312.217C258.006 312.113 256.579 312.424 255.342 313.148C254.139 313.872 253.177 314.838 252.455 316.046C251.768 317.253 251.424 318.547 251.424 319.927V329.706H246.681V308.284H250.96Z" fill="white"/>
<path d="M266.064 329.706V289.656H270.858V329.706H266.064ZM276.014 315.477L285.809 329.706H280.19L272.817 318.167L276.014 315.477ZM269.363 322.876L268.899 318.271L281.839 307.818L284.778 310.354L269.363 322.876Z" fill="white"/>
<path d="M297.72 330.12C296.208 330.12 294.73 329.862 293.287 329.344C291.877 328.792 290.709 327.982 289.781 326.912L291.792 324.118C292.685 324.98 293.596 325.636 294.524 326.084C295.486 326.498 296.431 326.705 297.359 326.705C298.047 326.705 298.683 326.619 299.267 326.446C299.851 326.274 300.315 325.998 300.659 325.618C301.037 325.205 301.226 324.653 301.226 323.963C301.226 323.204 300.968 322.6 300.453 322.152C299.971 321.703 299.336 321.341 298.545 321.065C297.789 320.789 296.981 320.53 296.122 320.289C294.369 319.702 293.029 318.892 292.101 317.857C291.173 316.822 290.709 315.563 290.709 314.079C290.709 312.941 290.984 311.889 291.534 310.923C292.118 309.923 292.96 309.112 294.06 308.491C295.194 307.87 296.586 307.56 298.236 307.56C299.714 307.56 301.037 307.749 302.205 308.129C303.374 308.474 304.474 309.06 305.505 309.888L303.597 312.889C302.979 312.234 302.24 311.751 301.38 311.44C300.521 311.13 299.748 310.957 299.061 310.923C298.476 310.888 297.909 310.975 297.359 311.182C296.844 311.389 296.414 311.682 296.07 312.061C295.727 312.441 295.555 312.889 295.555 313.407C295.555 314.131 295.796 314.718 296.277 315.166C296.758 315.615 297.377 315.977 298.133 316.253C298.923 316.494 299.696 316.753 300.453 317.029C301.518 317.339 302.463 317.753 303.288 318.271C304.113 318.788 304.766 319.426 305.247 320.185C305.763 320.944 306.02 321.893 306.02 323.031C306.02 324.308 305.711 325.498 305.092 326.602C304.508 327.671 303.597 328.533 302.36 329.189C301.157 329.81 299.61 330.12 297.72 330.12Z" fill="white"/>
<path d="M127.369 241.335H133.167V284.711H127.369V241.335Z" fill="white"/>
<path d="M149.167 259.873L149.645 265.933L149.406 264.973C150.203 263.133 151.498 261.673 153.291 260.593C155.085 259.473 157.157 258.913 159.508 258.913C161.859 258.913 163.771 259.613 165.246 261.013C166.76 262.373 167.537 264.153 167.577 266.353V284.711H161.958V268.332C161.919 266.972 161.52 265.873 160.763 265.033C160.046 264.153 158.91 263.713 157.356 263.713C155.921 263.713 154.626 264.113 153.471 264.913C152.315 265.713 151.399 266.812 150.721 268.212C150.084 269.612 149.765 271.232 149.765 273.072V284.711H144.206V259.873H149.167Z" fill="white"/>
<path d="M189.139 297.01C187.306 297.01 185.692 296.79 184.297 296.35C182.903 295.95 181.628 295.37 180.472 294.61C179.356 293.85 178.28 292.99 177.244 292.03L180.472 288.25C181.787 289.49 183.122 290.45 184.477 291.13C185.831 291.81 187.346 292.15 189.019 292.15C190.892 292.15 192.466 291.83 193.741 291.19C195.056 290.59 196.053 289.73 196.73 288.61C197.407 287.53 197.746 286.271 197.746 284.831L197.806 278.111L198.284 279.191C197.567 280.911 196.272 282.371 194.399 283.571C192.526 284.731 190.255 285.311 187.585 285.311C185.313 285.311 183.221 284.731 181.309 283.571C179.436 282.411 177.922 280.851 176.766 278.891C175.65 276.891 175.092 274.652 175.092 272.172C175.092 269.572 175.69 267.292 176.886 265.333C178.081 263.333 179.655 261.753 181.608 260.593C183.56 259.433 185.692 258.853 188.003 258.853C190.195 258.853 192.187 259.313 193.98 260.233C195.813 261.113 197.148 262.253 197.985 263.653L197.686 264.673L198.284 259.873H203.365V284.891C203.365 287.13 202.787 289.17 201.631 291.01C200.476 292.85 198.842 294.31 196.73 295.39C194.618 296.47 192.088 297.01 189.139 297.01ZM180.651 272.052C180.651 273.652 181.03 275.112 181.787 276.432C182.544 277.751 183.56 278.791 184.835 279.551C186.15 280.311 187.605 280.691 189.199 280.691C190.673 280.691 191.988 280.431 193.144 279.911C194.339 279.351 195.335 278.611 196.132 277.691C196.929 276.731 197.487 275.632 197.806 274.392V269.472C197.447 268.272 196.85 267.232 196.013 266.353C195.176 265.433 194.18 264.733 193.024 264.253C191.868 263.733 190.593 263.473 189.199 263.473C187.605 263.473 186.15 263.833 184.835 264.553C183.56 265.273 182.544 266.292 181.787 267.612C181.03 268.892 180.651 270.372 180.651 272.052Z" fill="white"/>
<path d="M224.444 285.311C221.614 285.311 219.184 284.751 217.152 283.631C215.119 282.471 213.545 280.911 212.429 278.951C211.354 276.951 210.816 274.672 210.816 272.112C210.816 269.672 211.433 267.452 212.669 265.453C213.904 263.453 215.558 261.853 217.63 260.653C219.702 259.453 222.013 258.853 224.563 258.853C227.831 258.853 230.54 259.813 232.692 261.733C234.844 263.653 236.299 266.293 237.056 269.652L216.673 276.852L215.358 273.552L232.095 267.432L230.899 268.212C230.421 266.892 229.624 265.753 228.508 264.793C227.392 263.793 225.938 263.293 224.145 263.293C222.631 263.293 221.276 263.673 220.08 264.433C218.885 265.153 217.948 266.153 217.271 267.432C216.594 268.712 216.255 270.172 216.255 271.812C216.255 273.532 216.614 275.052 217.331 276.372C218.048 277.651 219.024 278.671 220.26 279.431C221.535 280.151 222.969 280.511 224.563 280.511C225.639 280.511 226.675 280.311 227.671 279.911C228.707 279.511 229.664 278.991 230.54 278.351L233.111 282.491C231.875 283.331 230.481 284.011 228.927 284.531C227.412 285.051 225.918 285.311 224.444 285.311Z" fill="white"/>
<path d="M289.676 285.671C287.444 285.671 285.591 284.991 284.117 283.631C282.682 282.231 281.925 280.431 281.846 278.231V259.873H287.404V276.252C287.484 277.611 287.863 278.711 288.54 279.551C289.257 280.391 290.373 280.831 291.887 280.871C293.282 280.871 294.517 280.471 295.593 279.671C296.709 278.831 297.606 277.711 298.283 276.312C298.96 274.872 299.299 273.252 299.299 271.452V259.873H304.858V284.711H299.777L299.299 278.591L299.598 279.671C299.12 280.831 298.383 281.871 297.386 282.791C296.43 283.671 295.294 284.371 293.979 284.891C292.664 285.411 291.23 285.671 289.676 285.671Z" fill="white"/>
<path d="M314.475 259.873H320.034V284.711H314.475V259.873ZM314.057 250.874C314.057 249.994 314.395 249.254 315.073 248.654C315.79 248.054 316.567 247.754 317.404 247.754C318.241 247.754 318.978 248.054 319.616 248.654C320.293 249.254 320.632 249.994 320.632 250.874C320.632 251.794 320.293 252.554 319.616 253.154C318.978 253.714 318.241 253.994 317.404 253.994C316.567 253.994 315.79 253.694 315.073 253.094C314.395 252.494 314.057 251.754 314.057 250.874Z" fill="white"/>
<path d="M332.043 248.954H337.601V259.993H344.415V264.373H337.601V284.711H332.043V264.373H327.5V259.993H332.043V248.954Z" fill="white"/>
<path d="M353.224 296.65L369.542 259.873H374.683L358.723 296.65H353.224ZM359.321 284.891L347.426 259.873H353.703L363.685 282.071L359.321 284.891Z" fill="white"/>
<path d="M30 250.272C83.6039 205.807 127.503 190.653 174.574 191.777C221.645 192.902 239.828 258.643 174.574 227.774C109.32 196.905 30 250.272 30 250.272Z" fill="white"/>
<path d="M137.59 181.034C179.145 164.755 208.374 164.698 235.79 175.485C263.207 186.272 259.045 231.216 227.659 197.961C196.273 164.706 137.59 181.034 137.59 181.034Z" fill="white"/>
<path d="M363.085 181.034C321.53 164.755 292.3 164.698 264.884 175.485C237.468 186.272 241.629 231.216 273.015 197.961C304.401 164.706 363.085 181.034 363.085 181.034Z" fill="white"/>
<path d="M471 251.772C417.396 207.307 373.497 192.152 326.426 193.277C279.355 194.402 261.172 260.143 326.426 229.274C391.68 198.405 471 251.772 471 251.772Z" fill="white"/>
<path d="M247.421 201.469H253.399V287.71H247.421V201.469Z" fill="white"/>
<path d="M265.353 263.713H271.33V329.706H265.353V263.713Z" fill="white"/>
<path d="M247.589 282.036L265.353 263.717L271.162 269.391L253.397 287.71L247.589 282.036Z" fill="white"/>
</svg>
